#Comment line ignore any data following # character 
#Hierarchical Translation and Rotation (.htr) file 
[Header]	
#Header keywords are followed by a single value 
FileType HTR		#Single word string
DataType HTRS		#Translation followed by rotation and scale data
FileVersion 1		#integer
NumSegments 64		#integer
NumFrames 3		#integer
DataFrameRate 30		#integer, data frame rate in this file
EulerRotationOrder ZYX
CalibrationUnits mm
RotationUnits Degrees
GlobalAxisofGravity Y
BoneLengthAxis Y
ScaleFactor 1.00
[SegmentNames&Hierarchy]
#CHILD	PARENT
Pinger_Root GLOBAL
Pelvis Pinger_Root
L_Hip Pelvis
R_Hip Pelvis
Rear_Leg01 Pelvis
Spine1 Pelvis
L_Leg01 L_Hip
L_Leg02 L_Leg01
L_Leg03 L_Leg02
L_Foot L_Leg03
L_Toe1_01 L_Foot
L_Toe2_01 L_Foot
L_Toe3_01 L_Foot
planeAlignerLeft L_Foot
L_Toe1_02 L_Toe1_01
L_Toe1_03 L_Toe1_02
L_Toe2_02 L_Toe2_01
L_Toe2_03 L_Toe2_02
L_Toe3_02 L_Toe3_01
L_Toe3_03 L_Toe3_02
planeLockWeightLeft planeAlignerLeft
R_Leg01 R_Hip
R_Leg02 R_Leg01
R_Leg03 R_Leg02
R_Foot R_Leg03
planeAlignerRight R_Foot
R_Toe1_01 R_Foot
R_Toe2_01 R_Foot
R_Toe3_01 R_Foot
planeLockWeightRight planeAlignerRight
R_Toe1_02 R_Toe1_01
R_Toe1_03 R_Toe1_02
R_Toe2_02 R_Toe2_01
R_Toe2_03 R_Toe2_02
R_Toe3_02 R_Toe3_01
R_Toe3_03 R_Toe3_02
Rear_Leg02 Rear_Leg01
Rear_Leg03 Rear_Leg02
Rear_Leg04 Rear_Leg03
Rear_Foot Rear_Leg04
planeAlignerCenter Rear_Foot
Rear_Toe1_01 Rear_Foot
Rear_Toe2_01 Rear_Foot
Rear_Toe3_01 Rear_Foot
planeLockWeightCenter planeAlignerCenter
Rear_Toe1_02 Rear_Toe1_01
Rear_Toe1_03 Rear_Toe1_02
Rear_Toe2_02 Rear_Toe2_01
Rear_Toe2_03 Rear_Toe2_02
Rear_Toe3_02 Rear_Toe3_01
Rear_Toe3_03 Rear_Toe3_02
Back_Bone Spine1
Head Spine1
Motor_Bone Back_Bone
Ping_Mechanism Back_Bone
BN_LookIK Head
bottomMouth Head
L_Mouth01 Head
L_mouthFront Head
mouthGun Head
R_Mouth01 Head
R_mouthFront Head
TopMouth Head
weapon_bone Head
[BasePosition]
#SegmentName Tx, Ty, Tz, Rx, Ry, Rz, BoneLength
Pinger_Root 0.000000 0.000000 0.000000 -90.000000 0.000000 0.000000 10.000000 
Pelvis 0.000000 0.000000 0.000000 0.000000 0.000000 0.000000 10.000000 
L_Hip 0.000000 0.000000 0.000000 0.000000 0.000000 0.000000 10.000000 
R_Hip 0.000000 0.000000 0.000000 0.000000 0.000000 0.000000 10.000000 
Rear_Leg01 0.000000 0.000000 0.000000 0.000000 0.000000 0.000000 10.000000 
Spine1 0.000000 0.000000 0.000000 0.000000 0.000000 0.000000 10.000000 
L_Leg01 0.000000 0.000000 0.000000 0.000000 0.000000 0.000000 10.000000 
L_Leg02 0.000000 0.000000 0.000000 0.000000 0.000000 0.000000 10.000000 
L_Leg03 0.000000 0.000000 0.000000 0.000000 0.000000 0.000000 10.000000 
L_Foot 0.000000 0.000000 0.000000 0.000000 0.000000 0.000000 10.000000 
L_Toe1_01 0.000000 0.000000 0.000000 0.000000 0.000000 0.000000 10.000000 
L_Toe2_01 0.000000 0.000000 0.000000 0.000000 0.000000 0.000000 10.000000 
L_Toe3_01 0.000000 0.000000 0.000000 0.000000 0.000000 0.000000 10.000000 
planeAlignerLeft 0.000000 0.000000 0.000000 0.000000 0.000000 0.000000 10.000000 
L_Toe1_02 0.000000 0.000000 0.000000 0.000000 0.000000 0.000000 10.000000 
L_Toe1_03 0.000000 0.000000 0.000000 0.000000 0.000000 0.000000 10.000000 
L_Toe2_02 0.000000 0.000000 0.000000 0.000000 0.000000 0.000000 10.000000 
L_Toe2_03 0.000000 0.000000 0.000000 0.000000 0.000000 0.000000 10.000000 
L_Toe3_02 0.000000 0.000000 0.000000 0.000000 0.000000 0.000000 10.000000 
L_Toe3_03 0.000000 0.000000 0.000000 0.000000 0.000000 0.000000 10.000000 
planeLockWeightLeft 0.000000 0.000000 0.000000 0.000000 0.000000 0.000000 10.000000 
R_Leg01 0.000000 0.000000 0.000000 0.000000 0.000000 0.000000 10.000000 
R_Leg02 0.000000 0.000000 0.000000 0.000000 0.000000 0.000000 10.000000 
R_Leg03 0.000000 0.000000 0.000000 0.000000 0.000000 0.000000 10.000000 
R_Foot 0.000000 0.000000 0.000000 0.000000 0.000000 0.000000 10.000000 
planeAlignerRight 0.000000 0.000000 0.000000 0.000000 0.000000 0.000000 10.000000 
R_Toe1_01 0.000000 0.000000 0.000000 0.000000 0.000000 0.000000 10.000000 
R_Toe2_01 0.000000 0.000000 0.000000 0.000000 0.000000 0.000000 10.000000 
R_Toe3_01 0.000000 0.000000 0.000000 0.000000 0.000000 0.000000 10.000000 
planeLockWeightRight 0.000000 0.000000 0.000000 0.000000 0.000000 0.000000 10.000000 
R_Toe1_02 0.000000 0.000000 0.000000 0.000000 0.000000 0.000000 10.000000 
R_Toe1_03 0.000000 0.000000 0.000000 0.000000 0.000000 0.000000 10.000000 
R_Toe2_02 0.000000 0.000000 0.000000 0.000000 0.000000 0.000000 10.000000 
R_Toe2_03 0.000000 0.000000 0.000000 0.000000 0.000000 0.000000 10.000000 
R_Toe3_02 0.000000 0.000000 0.000000 0.000000 0.000000 0.000000 10.000000 
R_Toe3_03 0.000000 0.000000 0.000000 0.000000 0.000000 0.000000 10.000000 
Rear_Leg02 0.000000 0.000000 0.000000 0.000000 0.000000 0.000000 10.000000 
Rear_Leg03 0.000000 0.000000 0.000000 0.000000 0.000000 0.000000 10.000000 
Rear_Leg04 0.000000 0.000000 0.000000 0.000000 0.000000 0.000000 10.000000 
Rear_Foot 0.000000 0.000000 0.000000 0.000000 0.000000 0.000000 10.000000 
planeAlignerCenter 0.000000 0.000000 0.000000 0.000000 0.000000 0.000000 10.000000 
Rear_Toe1_01 0.000000 0.000000 0.000000 0.000000 0.000000 0.000000 10.000000 
Rear_Toe2_01 0.000000 0.000000 0.000000 0.000000 0.000000 0.000000 10.000000 
Rear_Toe3_01 0.000000 0.000000 0.000000 0.000000 0.000000 0.000000 10.000000 
planeLockWeightCenter 0.000000 0.000000 0.000000 0.000000 0.000000 0.000000 10.000000 
Rear_Toe1_02 0.000000 0.000000 0.000000 0.000000 0.000000 0.000000 10.000000 
Rear_Toe1_03 0.000000 0.000000 0.000000 0.000000 0.000000 0.000000 10.000000 
Rear_Toe2_02 0.000000 0.000000 0.000000 0.000000 0.000000 0.000000 10.000000 
Rear_Toe2_03 0.000000 0.000000 0.000000 0.000000 0.000000 0.000000 10.000000 
Rear_Toe3_02 0.000000 0.000000 0.000000 0.000000 0.000000 0.000000 10.000000 
Rear_Toe3_03 0.000000 0.000000 0.000000 0.000000 0.000000 0.000000 10.000000 
Back_Bone 0.000000 0.000000 0.000000 0.000000 0.000000 0.000000 10.000000 
Head 0.000000 0.000000 0.000000 0.000000 0.000000 0.000000 10.000000 
Motor_Bone 0.000000 0.000000 0.000000 0.000000 0.000000 0.000000 10.000000 
Ping_Mechanism 0.000000 0.000000 0.000000 0.000000 0.000000 0.000000 10.000000 
BN_LookIK 0.000000 0.000000 0.000000 0.000000 0.000000 0.000000 10.000000 
bottomMouth 0.000000 0.000000 0.000000 0.000000 0.000000 0.000000 10.000000 
L_Mouth01 0.000000 0.000000 0.000000 0.000000 0.000000 0.000000 10.000000 
L_mouthFront 0.000000 0.000000 0.000000 0.000000 0.000000 0.000000 10.000000 
mouthGun 0.000000 0.000000 0.000000 0.000000 0.000000 0.000000 10.000000 
R_Mouth01 0.000000 0.000000 0.000000 0.000000 0.000000 0.000000 10.000000 
R_mouthFront 0.000000 0.000000 0.000000 0.000000 0.000000 0.000000 10.000000 
TopMouth 0.000000 0.000000 0.000000 0.000000 0.000000 0.000000 10.000000 
weapon_bone 0.000000 0.000000 0.000000 0.000000 0.000000 0.000000 10.000000 
#Beginning of Data. Separated by tabs
#Fr	Tx	Ty	Tz	Rx	Ry	Rz	SF
[Pinger_Root]
14 0.000000 0.000000 0.000000 -0.000075 -0.000000 -0.000020 0.000000
15 0.000000 0.000000 0.000000 -0.000075 -0.000000 -0.000020 0.000000
16 0.000000 0.000000 0.000000 -0.000075 -0.000000 -0.000020 0.000000
[Pelvis]
14 383.623840 874.149902 4713.664063 171.907806 -84.317177 -168.740967 4809.358887
15 377.456848 826.554260 4759.128906 166.631042 -84.792076 -162.515640 4845.098145
16 360.383148 769.864868 4802.838867 155.671188 -86.032272 -150.552460 4877.481934
[L_Hip]
14 5.766392 125.831482 872.656799 164.247208 -71.686340 107.383766 881.701050
15 5.766392 125.831482 872.656799 166.269760 -74.177727 104.649368 881.701050
16 5.766392 125.831482 872.656799 168.550171 -76.217369 101.868660 881.701050
[R_Hip]
14 5.765438 125.836372 -872.654907 26.855448 73.682281 114.491699 881.699829
15 5.765438 125.836372 -872.654907 23.390007 75.681160 111.306618 881.699829
16 5.765438 125.836372 -872.654907 18.872986 77.617081 107.068718 881.699829
[Rear_Leg01]
14 -192.298416 -925.602966 -0.001907 -166.582962 -16.659479 -148.537048 945.367432
15 -192.298416 -925.602966 -0.001907 -166.222687 -17.268820 -145.700211 945.367432
16 -192.298416 -925.602966 -0.001907 -166.769669 -15.495981 -142.290359 945.367432
[Spine1]
14 290.604584 5.007505 0.000477 -0.546357 6.866709 21.287603 290.647736
15 290.604584 5.007505 0.000477 -1.567320 6.552644 21.395342 290.647736
16 290.604584 5.007505 0.000477 -2.953899 5.424200 21.520607 290.647736
[L_Leg01]
14 761.932007 -0.002384 -0.069261 65.792107 -23.464214 -47.754852 761.932068
15 761.932007 -0.002384 -0.069261 68.324272 -23.433170 -51.561874 761.932068
16 761.932007 -0.002384 -0.069261 73.535355 -23.449432 -56.846390 761.932068
[L_Leg02]
14 1441.140503 -0.000954 -0.000715 3.842193 0.054162 -133.500381 1441.140503
15 1441.140503 -0.000954 -0.000715 2.608950 -0.288174 -133.281143 1441.140503
16 1441.140503 -0.000954 -0.000715 0.786655 -0.164692 -127.368279 1441.140503
[L_Leg03]
14 1686.963989 -0.000715 -0.000954 -0.049310 0.022167 123.547592 1686.963989
15 1686.963989 -0.000715 -0.000954 -0.020817 0.008281 115.426971 1686.963989
16 1686.963989 -0.000715 -0.000954 0.019175 -0.006148 105.551735 1686.963989
[L_Foot]
14 3041.570068 -30.715107 11.297464 -10.819872 16.717386 68.718719 3041.746094
15 3041.570068 -30.715107 11.297464 -12.111914 16.701160 82.010880 3041.746094
16 3041.570068 -30.715107 11.297464 -17.052559 17.236408 80.185326 3041.746094
[L_Toe1_01]
14 -188.216690 -224.732346 -21.137953 89.558601 -3.969987 -160.592728 293.899567
15 -188.216690 -224.732346 -21.137953 88.479446 -1.922998 -156.795731 293.899567
16 -188.216690 -224.732346 -21.137953 87.982300 -0.451384 -154.112366 293.899567
[L_Toe2_01]
14 200.746536 -219.926590 148.838394 -79.475739 -16.199793 -50.193077 332.896027
15 200.746536 -219.926590 148.838394 -78.562637 -14.331409 -49.187607 332.896027
16 200.746536 -219.926590 148.838394 -77.843498 -12.992891 -48.586304 332.896027
[L_Toe3_01]
14 188.832520 -219.859131 -191.078659 -104.822334 16.301435 -54.795219 347.140900
15 188.832520 -219.859131 -191.078659 -105.291779 18.410995 -53.419495 347.140900
16 188.832520 -219.859131 -191.078659 -105.880836 19.828636 -52.557968 347.140900
[planeAlignerLeft]
14 -1.053870 -654.048950 32.985882 169.137939 -87.047859 98.490387 654.881104
15 -60.941105 -666.319519 -1.974452 169.029114 -88.586121 99.827324 669.103455
16 -119.479866 -672.730896 -26.637833 0.000000 -89.626747 -90.310333 683.777649
[L_Toe1_02]
14 413.761139 0.000477 0.000000 0.001387 -25.536024 0.001387 413.761139
15 413.761139 0.000477 0.000000 0.001386 -25.746565 0.001386 413.761139
16 413.761139 0.000477 0.000000 0.001384 -25.957100 0.001384 413.761139
[L_Toe1_03]
14 464.317322 0.000358 -0.000089 0.004942 62.525204 0.004942 464.317322
15 464.317322 0.000358 -0.000089 0.004027 56.110256 0.004027 464.317322
16 464.317322 0.000358 -0.000089 0.003486 50.657196 0.003486 464.317322
[L_Toe2_02]
14 342.235809 -0.000477 0.000238 0.001183 -75.885719 0.001183 342.235809
15 342.235809 -0.000477 0.000238 0.001179 -78.563080 0.001179 342.235809
16 342.235809 -0.000477 0.000238 0.001178 -79.808197 0.001178 342.235809
[L_Toe2_03]
14 420.210846 -0.000715 0.000000 -179.990219 84.283623 -179.986725 420.210846
15 420.210846 -0.000715 0.000000 -179.997803 73.334366 -179.994263 420.210846
16 420.210846 -0.000715 0.000000 -179.999008 66.106461 -179.995438 420.210846
[L_Toe3_02]
14 329.270111 0.000954 0.000000 0.001177 -81.264114 0.001177 329.270111
15 329.270111 0.000954 0.000000 0.001176 -82.300247 0.001176 329.270111
16 329.270111 0.000954 0.000000 0.001176 -82.669174 0.001176 329.270111
[L_Toe3_03]
14 439.137451 -0.001907 0.000954 -179.997437 74.734245 -179.993912 439.137451
15 439.137451 -0.001907 0.000954 -179.998398 70.408463 -179.994843 439.137451
16 439.137451 -0.001907 0.000954 179.990463 67.338112 179.997589 439.137451
[planeLockWeightLeft]
14 843.749878 -0.000458 -0.000210 -0.011826 -0.004376 0.005620 843.749878
15 499.999817 -0.000229 -0.000238 -0.011826 -0.004376 0.005620 499.999817
16 156.249878 -0.000000 -0.000267 -0.011826 -0.004376 0.005620 156.249878
[R_Leg01]
14 761.455627 -0.001907 -0.000358 106.424225 -24.612869 74.124268 761.455688
15 761.455627 -0.001907 -0.000358 107.469139 -25.178402 74.817574 761.455688
16 761.455627 -0.001907 -0.000358 108.725296 -27.412394 73.439781 761.455688
[R_Leg02]
14 1441.140625 0.000000 -0.000238 -0.073307 0.056125 -103.063187 1441.140625
15 1441.140625 0.000000 -0.000238 0.009895 0.040834 -101.660309 1441.140625
16 1441.140625 0.000000 -0.000238 0.049492 0.028143 -103.492050 1441.140625
[R_Leg03]
14 1686.963989 0.000954 0.001431 -0.006041 0.002732 108.082932 1686.963989
15 1686.963989 0.000954 0.001431 -0.014498 0.005579 106.078743 1686.963989
16 1686.963989 0.000954 0.001431 -0.019546 0.007805 104.672997 1686.963989
[R_Foot]
14 3041.560059 -30.531288 -11.204481 7.746074 -27.367384 51.202282 3041.734131
15 3041.560059 -30.531288 -11.204481 7.453666 -25.941685 51.212101 3041.734131
16 3041.560059 -30.531288 -11.204481 7.667247 -24.778610 51.752548 3041.734131
[planeAlignerRight]
14 40.199875 -491.233215 84.081390 0.000000 -89.951546 -90.004936 499.995789
15 38.581848 -499.298523 79.445198 0.000000 -89.960434 -90.004951 507.049408
16 34.249882 -520.791626 67.484451 0.000000 -89.965736 -90.004951 526.261475
[R_Toe1_01]
14 -188.383347 -224.864899 21.052242 92.618126 -2.136665 -175.956894 294.101532
15 -188.383347 -224.864899 21.052242 92.278587 -1.955512 -175.324158 294.101532
16 -188.383347 -224.864899 21.052242 91.854782 -1.357371 -173.626968 294.101532
[R_Toe2_01]
14 200.637817 -220.002121 -148.787384 -95.831955 9.099028 -33.885387 332.857574
15 200.637817 -220.002121 -148.787384 -96.682823 9.214545 -34.545925 332.857574
16 200.637817 -220.002121 -148.787384 -97.812439 9.672563 -36.339119 332.857574
[R_Toe3_01]
14 188.606735 -220.092957 191.126343 -76.418938 -21.560036 -39.085049 347.192566
15 188.606735 -220.092957 191.126343 -76.064774 -21.158594 -39.548439 347.192566
16 188.606735 -220.092957 191.126343 -75.593910 -20.224764 -40.836121 347.192566
[planeLockWeightRight]
14 999.999451 0.000305 -0.000342 -0.011823 -0.004379 -0.000027 999.999451
15 999.999451 0.000305 -0.000373 -0.011823 -0.004379 -0.000027 999.999451
16 999.999451 0.000305 -0.000403 -0.011823 -0.004379 -0.000027 999.999451
[R_Toe1_02]
14 413.762085 0.000477 -0.000119 0.001445 -18.641615 0.001445 413.762085
15 413.762085 0.000477 -0.000119 0.001442 -18.965031 0.001442 413.762085
16 413.762085 0.000477 -0.000119 0.001439 -19.288446 0.001439 413.762085
[R_Toe1_03]
14 464.317810 0.000000 0.001088 -179.988892 84.878532 -179.985397 464.317810
15 464.317810 0.000000 0.001088 -179.987274 85.449554 -179.983780 464.317810
16 464.317810 0.000000 0.001088 -179.979584 87.028099 -179.976089 464.317810
[R_Toe2_02]
14 342.234741 -0.000954 0.000238 -0.002335 -78.539749 -0.002335 342.234741
15 342.234741 -0.000954 0.000238 -0.002335 -78.471626 -0.002335 342.234741
16 342.234741 -0.000954 0.000238 -0.002335 -78.403442 -0.002335 342.234741
[R_Toe2_03]
14 420.210846 0.000715 -0.000268 -179.994659 71.544281 -179.998184 420.210846
15 420.210846 0.000715 -0.000268 -179.994553 71.977661 -179.998108 420.210846
16 420.210846 0.000715 -0.000268 -179.994293 73.204948 -179.997833 420.210846
[R_Toe3_02]
14 329.270355 -0.000477 -0.000954 0.001178 -80.674873 0.001178 329.270355
15 329.270355 -0.000477 -0.000954 0.001178 -80.616531 0.001178 329.270355
16 329.270355 -0.000477 -0.000954 0.001178 -80.558159 0.001178 329.270355
[R_Toe3_03]
14 439.137939 0.000238 0.001431 -179.996368 77.739166 -179.992859 439.137939
15 439.137939 0.000238 0.001431 -179.996353 77.826103 -179.992828 439.137939
16 439.137939 0.000238 0.001431 -179.996307 77.913002 -179.992783 439.137939
[Rear_Leg02]
14 1162.777710 -0.029802 0.005960 16.744770 -17.479404 -112.885033 1162.777710
15 1162.777710 -0.029802 0.005960 17.270088 -19.472250 -106.359993 1162.777710
16 1162.777710 -0.029802 0.005960 19.250996 -19.805882 -104.869659 1162.777710
[Rear_Leg03]
14 607.192505 -0.013351 -0.073195 0.010194 -0.005678 74.593056 607.192505
15 607.192505 -0.013351 -0.073195 0.010220 -0.005631 74.063683 607.192505
16 607.192505 -0.013351 -0.073195 0.010189 -0.005687 74.696915 607.192505
[Rear_Leg04]
14 995.874512 -0.020504 -0.011921 -0.045580 -0.017068 82.358635 995.874573
15 995.874512 -0.020504 -0.011921 -0.045315 -0.017745 80.646812 995.874573
16 995.874512 -0.020504 -0.011921 -0.045594 -0.017017 82.482201 995.874573
[Rear_Foot]
14 3096.176270 -0.067472 -0.041425 -90.920555 66.012756 61.511700 3096.176270
15 3096.176270 -0.067472 -0.041425 -89.110977 64.246811 61.479858 3096.176270
16 3096.176270 -0.067472 -0.041425 -82.608902 62.439117 69.471329 3096.176270
[planeAlignerCenter]
14 81.610733 65.190193 -573.384399 12.240773 -0.001473 179.998184 582.820496
15 101.931396 63.037567 -583.844482 12.240772 -0.001473 179.998184 596.018555
16 120.370316 57.213753 -596.859802 12.240772 -0.001473 179.998184 611.558716
[Rear_Toe1_01]
14 0.653352 83.966492 -371.173737 -1.792660 29.405676 85.862869 380.553192
15 0.653352 83.966492 -371.173737 -2.331860 30.127876 84.711288 380.553192
16 0.653352 83.966492 -371.173737 -2.983176 30.401575 83.705681 380.553192
[Rear_Toe2_01]
14 178.200760 -294.826019 -362.060547 -5.065367 23.448423 -59.438908 499.765686
15 178.200760 -294.826019 -362.060547 -4.616718 24.066425 -58.262360 499.765686
16 178.200760 -294.826019 -362.060547 -3.589333 26.122684 -57.330265 499.765686
[Rear_Toe3_01]
14 -153.359680 -308.780914 -362.060852 4.333163 21.925997 -109.876450 499.952881
15 -153.359680 -308.780914 -362.060852 4.389738 22.234591 -108.609772 499.952881
16 -153.359680 -308.780914 -362.060852 4.537742 23.554615 -107.325783 499.952881
[planeLockWeightCenter]
14 -0.000087 0.000305 0.000000 -0.011814 -0.004373 -0.000015 0.000317
15 -0.000086 0.000305 0.000000 -0.011814 -0.004373 -0.000015 0.000317
16 -0.000085 0.000305 0.000000 -0.011814 -0.004373 -0.000015 0.000317
[Rear_Toe1_02]
14 379.707825 0.194073 0.000477 -0.000767 -33.624729 0.000838 379.707855
15 379.707825 0.194073 0.000477 -0.000767 -33.624729 0.000838 379.707855
16 379.707825 0.194073 0.000477 -0.000767 -33.624729 0.000838 379.707855
[Rear_Toe1_03]
14 500.129700 0.165701 0.000119 -0.004143 61.549904 -0.000535 500.129761
15 500.129700 0.165701 0.000119 -0.004065 60.499363 -0.000449 500.129761
16 500.129700 0.165701 0.000119 -0.004717 67.409409 -0.001151 500.129761
[Rear_Toe2_02]
14 340.494507 0.000238 -0.000954 0.001182 -76.458122 0.001182 340.494507
15 340.494507 0.000238 -0.000954 0.001184 -75.072701 0.001184 340.494507
16 340.494507 0.000238 -0.000954 0.001180 -78.397034 0.001180 340.494507
[Rear_Toe2_03]
14 433.103577 0.000000 0.000238 0.014814 80.907524 0.014814 433.103546
15 433.103577 0.000000 0.000238 0.011564 78.350281 0.011564 433.103546
16 433.103577 0.000000 0.000238 0.024099 84.417038 0.024099 433.103546
[Rear_Toe3_02]
14 340.494141 -0.000358 -0.000477 0.001177 -81.638535 0.001177 340.494171
15 340.494141 -0.000358 -0.000477 0.001176 -82.037827 0.001176 340.494171
16 340.494141 -0.000358 -0.000477 0.001175 -85.397850 0.001175 340.494171
[Rear_Toe3_03]
14 433.103577 0.001431 -0.000238 -179.935318 89.008308 -179.931808 433.103546
15 433.103577 0.001431 -0.000238 -179.966888 88.110519 -179.963394 433.103546
16 433.103577 0.001431 -0.000238 -179.995041 80.186966 -179.991531 433.103546
[Back_Bone]
14 1312.175781 -701.934692 0.000954 -1.072546 0.895029 -84.730461 1488.125488
15 1312.175781 -701.934692 0.000954 -1.338114 0.980707 -84.649048 1488.125488
16 1312.175781 -701.934692 0.000954 -1.603561 1.066758 -84.568024 1488.125488
[Head]
14 1406.159424 809.709290 0.001431 -1.326135 0.649536 18.483561 1622.625488
15 1406.159424 809.709290 0.001431 -1.486260 0.862748 19.522125 1622.625488
16 1406.159424 809.709290 0.001431 -1.642463 1.078768 20.559883 1622.625488
[Motor_Bone]
14 1158.364380 -417.834747 0.000477 -1.283821 0.107337 -105.880653 1231.419434
15 1158.364380 -417.834747 0.000477 -1.484410 0.110806 -105.876442 1231.419434
16 1158.364380 -417.834747 0.000477 -1.685001 0.114290 -105.872276 1231.419434
[Ping_Mechanism]
14 1211.497681 -428.865967 -28.513599 0.000103 -0.000053 82.120995 1285.482666
15 1209.294067 -428.125000 -25.560341 0.000103 -0.000053 82.120995 1283.096436
16 1207.315674 -428.094788 -16.681276 0.000103 -0.000053 82.120995 1281.075562
[BN_LookIK]
14 193.241119 1380.371704 -0.002861 0.000000 89.965736 -31.038179 1393.832153
15 193.241119 1380.371704 -0.002861 0.000000 89.965736 -31.038179 1393.832153
16 193.241119 1380.371704 -0.002861 0.000000 89.965736 -31.038179 1393.832153
[bottomMouth]
14 -435.092926 615.759399 -0.000954 -0.000022 0.000016 73.527184 753.966492
15 -435.092926 615.759399 -0.000954 -0.000022 0.000016 73.527184 753.966492
16 -435.092926 615.759399 -0.000954 -0.000022 0.000016 73.527184 753.966492
[L_Mouth01]
14 554.440979 7.658243 838.222046 150.204178 23.759130 109.605339 1005.027161
15 554.440979 7.658243 838.222046 150.204178 23.759130 109.605339 1005.027161
16 554.440979 7.658243 838.222046 150.204178 23.759130 109.605339 1005.027161
[L_mouthFront]
14 551.629089 934.514771 339.150421 0.000081 2.804060 79.119301 1136.941284
15 551.629089 934.514771 339.150421 0.000081 2.804060 79.119301 1136.941284
16 551.629089 934.514771 339.150421 0.000081 2.804060 79.119301 1136.941284
[mouthGun]
14 55.332661 1627.420898 0.000000 0.000023 0.000009 -11.038128 1628.361328
15 55.332661 1627.420898 0.000000 0.000023 0.000009 -11.038128 1628.361328
16 55.332661 1627.420898 0.000000 0.000023 0.000009 -11.038128 1628.361328
[R_Mouth01]
14 554.442383 7.659197 -838.223938 29.795891 -23.759109 109.605331 1005.029541
15 554.442383 7.659197 -838.223938 29.795891 -23.759109 109.605331 1005.029541
16 554.442383 7.659197 -838.223938 29.795891 -23.759109 109.605331 1005.029541
[R_mouthFront]
14 551.629089 934.514282 -339.151367 0.000029 -2.803930 79.119133 1136.941162
15 551.629089 934.514282 -339.151367 0.000029 -2.803930 79.119133 1136.941162
16 551.629089 934.514282 -339.151367 0.000029 -2.803930 79.119133 1136.941162
[TopMouth]
14 461.269867 -56.106091 -0.008583 -0.000059 -0.000268 92.025169 464.669525
15 461.269867 -56.106091 -0.008583 -0.000059 -0.000268 92.025169 464.669525
16 461.269867 -56.106091 -0.008583 -0.000059 -0.000268 92.025169 464.669525
[weapon_bone]
14 -987.239868 1448.372803 0.001431 0.000000 89.965736 -31.038221 1752.833740
15 -987.239868 1448.372803 0.001431 0.000000 89.965736 -31.038221 1752.833740
16 -987.239868 1448.372803 0.001431 0.000000 89.965736 -31.038221 1752.833740
